# Blender 3.5.0
# www.blender.org
o Plane.004
v 1.500000 1.000000 -0.000000
v 1.500000 -1.000000 -0.000000
v 3.500000 1.000000 0.000000
v 3.500000 -1.000000 0.000000
v 3.402209 0.902209 0.000000
v 1.597791 0.902209 -0.000000
v 1.597791 -0.902209 -0.000000
v 3.402209 -0.902209 0.000000
vn -0.0000 -0.0000 1.0000
vt 0.000000 0.000000
vt 1.000000 0.000000
vt 0.000000 1.000000
vt 1.000000 1.000000
vt 0.048896 0.951104
vt 0.048896 0.048896
vt 0.951104 0.048896
vt 0.951104 0.951104
s 0
f 5/5/1 1/1/1 6/6/1
f 6/6/1 2/2/1 7/7/1
f 7/7/1 4/4/1 8/8/1
f 8/8/1 3/3/1 5/5/1
f 5/5/1 3/3/1 1/1/1
f 6/6/1 1/1/1 2/2/1
f 7/7/1 2/2/1 4/4/1
f 8/8/1 4/4/1 3/3/1
