# Blender v3.3.1 OBJ File: 'smallCarrot.blend'
# www.blender.org
o Cylinder.002_Cylinder.003
v 0.000195 0.001906 0.009052
v 0.003338 0.002073 0.011400
v 0.000193 0.002183 0.014483
v -0.002610 0.002403 0.011402
v 0.011907 0.001428 0.010577
v -0.000130 -0.000209 0.000481
v -0.000532 0.001442 0.023066
v -0.011152 0.001298 0.010203
v -0.010755 0.043764 -0.034117
v -0.025254 0.049232 -0.017387
v -0.008543 0.046002 -0.026402
v -0.016686 0.049948 -0.015075
v -0.049008 0.072610 -0.079500
v -0.051480 0.073856 -0.075105
v -0.048176 0.072861 -0.077813
v -0.049469 0.073711 -0.074896
v 0.010718 0.045130 -0.035133
v 0.024520 0.042610 -0.025630
v 0.031904 0.041203 -0.024548
v 0.007865 0.044132 -0.042531
v 0.060378 0.062309 -0.076189
v 0.065729 0.060863 -0.071562
v 0.069390 0.060688 -0.071051
v 0.060342 0.062086 -0.079954
v 0.026025 0.041457 0.030308
v 0.019661 0.038249 0.044117
v 0.036540 0.039680 0.023808
v 0.022166 0.035847 0.051721
v 0.080883 0.062344 0.064411
v 0.079595 0.061758 0.068398
v 0.084180 0.061066 0.062853
v 0.081157 0.060601 0.070903
v -0.035370 0.048162 0.045577
v -0.041563 0.048137 0.032163
v -0.033220 0.045472 0.053868
v -0.047718 0.045748 0.027815
v -0.084477 0.067868 0.040379
v -0.084655 0.067322 0.038955
v -0.087725 0.068060 0.043260
v -0.088161 0.065504 0.037695
v 0.000195 0.001906 0.009052
v 0.003338 0.002073 0.011400
v 0.000193 0.002183 0.014483
v -0.002610 0.002403 0.011402
v 0.011907 0.001428 0.010577
v -0.000130 -0.000209 0.000481
v -0.000532 0.001442 0.023066
v -0.011152 0.001298 0.010203
v -0.010755 0.043764 -0.034117
v -0.025254 0.049232 -0.017387
v -0.008543 0.046002 -0.026402
v -0.016686 0.049948 -0.015075
v -0.049008 0.072610 -0.079500
v -0.051480 0.073856 -0.075105
v -0.048176 0.072861 -0.077813
v -0.049469 0.073711 -0.074896
v 0.010718 0.045130 -0.035133
v 0.024520 0.042610 -0.025630
v 0.031904 0.041203 -0.024548
v 0.007865 0.044132 -0.042531
v 0.060378 0.062309 -0.076189
v 0.065729 0.060863 -0.071562
v 0.069390 0.060688 -0.071051
v 0.060342 0.062086 -0.079954
v 0.026025 0.041457 0.030308
v 0.019661 0.038249 0.044117
v 0.036540 0.039680 0.023808
v 0.022166 0.035847 0.051721
v 0.080883 0.062344 0.064411
v 0.079595 0.061758 0.068398
v 0.084180 0.061066 0.062853
v 0.081157 0.060601 0.070903
v -0.035370 0.048162 0.045577
v -0.041563 0.048137 0.032163
v -0.033220 0.045472 0.053868
v -0.047718 0.045748 0.027815
v -0.084477 0.067868 0.040379
v -0.084655 0.067322 0.038955
v -0.087725 0.068060 0.043260
v -0.088161 0.065504 0.037695
vt 0.040020 0.387406
vt 0.024320 0.400354
vt 0.025788 0.383865
vt 0.254682 0.686242
vt 0.217111 0.836612
vt 0.195494 0.685725
vt 0.045446 0.729368
vt 0.045710 0.860308
vt 0.029097 0.731920
vt 0.960846 0.233182
vt 0.939012 0.003816
vt 0.960846 0.000000
vt 0.121634 0.730909
vt 0.096155 0.922565
vt 0.107954 0.729368
vt 0.760434 0.563961
vt 0.808216 0.800856
vt 0.737757 0.548473
vt 0.813066 0.369818
vt 0.796139 0.353362
vt 0.175718 0.936675
vt 0.150165 0.742744
vt 0.175718 0.729368
vt 0.404897 0.194751
vt 0.372598 0.000000
vt 0.457023 0.012922
vt 0.995597 0.863501
vt 0.979471 0.863300
vt 0.984972 0.858027
vt 0.861235 0.031648
vt 0.939012 0.243333
vt 0.923134 0.253866
vt 0.926404 0.625818
vt 0.997030 0.613416
vt 0.946452 0.599483
vt 0.093302 0.237191
vt 0.160088 0.014095
vt 0.154261 0.254893
vt 0.763322 0.991133
vt 0.737757 0.816037
vt 0.763322 0.805523
vt 0.008006 0.357035
vt 0.133602 0.009441
vt 0.171057 0.005224
vt 0.182264 0.245511
vt 0.926404 0.827129
vt 0.878809 0.599483
vt 0.926404 0.605476
vt 0.072301 0.218189
vt 0.929628 0.371487
vt 0.922339 0.589156
vt 0.905050 0.353362
vt 0.507264 0.687001
vt 0.600872 0.810980
vt 0.486247 0.796026
vt 0.985562 0.017035
vt 0.960846 0.188225
vt 0.972882 0.000000
vt 0.004860 0.735255
vt 0.000000 0.860308
vt 0.906552 0.589127
vt 0.929628 0.597853
vt 0.897333 0.599483
vt 0.848131 0.359767
vt 0.813066 0.390495
vt 0.718556 0.913890
vt 0.653727 0.696308
vt 0.685828 0.692772
vt 0.000000 0.594454
vt 0.166326 0.713055
vt 0.165705 0.729368
vt 0.803256 0.353362
vt 0.847406 0.166904
vt 0.861235 0.330122
vt 0.039969 0.401191
vt 0.029855 0.581175
vt 0.993739 0.331328
vt 0.929628 0.489617
vt 0.971188 0.318216
vt 0.182264 0.717205
vt 0.841295 0.000000
vt 0.861235 0.005518
vt 0.958355 0.495804
vt 0.979251 0.599097
vt 0.083496 0.567261
vt 0.573372 0.684959
vt 0.040020 0.387406
vt 0.024320 0.400354
vt 0.025788 0.383865
vt 0.254682 0.686242
vt 0.217111 0.836612
vt 0.195494 0.685725
vt 0.045446 0.729368
vt 0.045710 0.860308
vt 0.029097 0.731920
vt 0.960846 0.233182
vt 0.939012 0.003816
vt 0.960846 0.000000
vt 0.760434 0.563961
vt 0.808216 0.800856
vt 0.737757 0.548473
vt 0.813066 0.369818
vt 0.796139 0.353362
vt 0.404897 0.194751
vt 0.372598 0.000000
vt 0.457023 0.012922
vt 0.995597 0.863501
vt 0.979471 0.863300
vt 0.984972 0.858027
vt 0.861235 0.031648
vt 0.939012 0.243333
vt 0.923134 0.253866
vt 0.926404 0.625818
vt 0.997030 0.613416
vt 0.946452 0.599483
vt 0.093302 0.237191
vt 0.160088 0.014095
vt 0.154261 0.254893
vt 0.763322 0.991133
vt 0.737757 0.816037
vt 0.763322 0.805523
vt 0.133602 0.009441
vt 0.171057 0.005224
vt 0.182264 0.245511
vt 0.926404 0.827129
vt 0.878809 0.599483
vt 0.926404 0.605476
vt 0.072301 0.218189
vt 0.929628 0.371487
vt 0.922339 0.589156
vt 0.905050 0.353362
vt 0.985562 0.017035
vt 0.960846 0.188225
vt 0.972882 0.000000
vt 0.004860 0.735255
vt 0.000000 0.860308
vt 0.906552 0.589127
vt 0.929628 0.597853
vt 0.897333 0.599483
vt 0.848131 0.359767
vt 0.813066 0.390495
vt 0.718556 0.913890
vt 0.653727 0.696308
vt 0.685828 0.692772
vt 0.000000 0.594454
vt 0.166326 0.713055
vt 0.165705 0.729368
vt 0.039969 0.401191
vt 0.029855 0.581175
vt 0.993739 0.331328
vt 0.929628 0.489617
vt 0.971188 0.318216
vt 0.182264 0.717205
vt 0.958355 0.495804
vt 0.979251 0.599097
vt 0.083496 0.567261
vt 0.326980 0.860028
vt 0.096155 0.835865
vt 0.942549 0.251502
vt 0.150165 0.922565
vt 0.813066 0.805523
vt 0.154410 0.951035
vt 0.349547 0.192888
vt 0.997031 0.870351
vt 0.939012 0.000000
vt 0.740849 1.000000
vt 0.123392 0.000000
vt 0.813066 0.828099
vt 0.985562 0.202201
vt 0.600872 0.913890
vt 0.737756 0.189110
vt 0.170745 0.710144
vt 0.993739 0.599483
vt 0.326980 0.860028
vt 0.096155 0.835865
vt 0.942549 0.251502
vt 0.813066 0.805523
vt 0.349547 0.192888
vt 0.997031 0.870351
vt 0.939012 0.000000
vt 0.740849 1.000000
vt 0.123392 0.000000
vt 0.813066 0.828099
vt 0.985562 0.202201
vt 0.600872 0.913890
vt 0.170745 0.710144
vt 0.993739 0.599483
vn -0.0149 0.9986 -0.0510
vn 0.5133 -0.6985 -0.4987
vn -0.5506 0.5972 -0.5833
vn 0.7988 0.6014 -0.0120
vn 0.6017 0.5171 0.6087
vn 0.7990 0.4761 -0.3672
vn 0.9878 0.1382 -0.0716
vn -0.2691 0.4198 0.8668
vn -0.7194 -0.5285 -0.4507
vn 0.0949 0.9663 -0.2394
vn -0.5460 -0.8348 -0.0704
vn 0.0271 0.9238 0.3818
vn 0.5062 0.8600 0.0643
vn -0.0543 0.9428 0.3289
vn -0.8631 0.4232 0.2758
vn -0.3022 0.7164 0.6289
vn 0.1211 0.6342 0.7636
vn 0.3080 0.9495 -0.0593
vn -0.3562 0.9330 -0.0519
vn 0.1363 -0.9481 -0.2874
vn 0.1039 0.8888 0.4464
vn -0.4711 0.7847 0.4030
vn 0.6902 -0.6742 0.2628
vn -0.8688 0.4942 -0.0307
vn -0.3866 0.5138 -0.7659
vn 0.4397 0.8719 0.2156
vn -0.3776 0.9251 0.0409
vn 0.0684 0.8375 -0.5421
vn 0.3627 -0.9283 0.0825
vn 0.3159 0.9014 0.2961
vn -0.5738 -0.6627 0.4812
vn 0.5407 0.7164 -0.4409
vn 0.0652 0.4580 -0.8866
vn -0.2864 0.8790 -0.3813
vn -0.3149 -0.8529 0.4165
vn 0.2065 0.7043 -0.6793
vn 0.3827 0.9065 -0.1783
vn 0.0732 -0.9946 0.0740
vn 0.1332 0.9898 -0.0505
vn 0.3860 -0.6772 -0.6264
vn -0.7729 0.5961 -0.2177
vn 0.8224 0.5566 0.1175
vn 0.7844 0.4756 0.3982
vn 0.8133 0.3622 -0.4553
vn 0.9602 0.0126 -0.2789
vn -0.1803 0.4373 0.8811
vn -0.6027 -0.5238 -0.6020
vn 0.1239 0.9708 -0.2057
vn -0.4903 -0.8596 -0.1440
vn -0.1950 0.8702 0.4525
vn 0.5567 0.8307 0.0048
vn -0.0388 0.9401 0.3388
vn -0.9754 0.2199 -0.0172
vn -0.4393 0.7201 0.5370
vn 0.0150 0.6576 0.7532
vn 0.0297 0.9917 0.1254
vn -0.3277 0.9448 -0.0011
vn 0.1096 -0.9474 -0.3008
vn -0.0090 0.9248 0.3802
vn -0.4678 0.6544 0.5941
vn 0.5801 -0.5736 0.5784
vn -0.8858 0.2702 0.3772
vn -0.0511 0.4560 -0.8885
vn 0.3073 0.9222 0.2347
vn -0.3709 0.9285 0.0165
vn -0.0956 0.9100 -0.4035
vn 0.3665 -0.9284 0.0613
vn 0.3453 0.9153 0.2074
vn -0.6252 -0.7023 0.3405
vn 0.6533 0.6939 -0.3029
vn 0.3190 0.5642 -0.7616
vn -0.3535 0.8872 -0.2965
vn -0.4096 -0.8857 0.2185
vn 0.0416 0.5137 -0.8569
vn 0.3274 0.8677 -0.3740
vn -0.0730 -0.9948 0.0714
s off
f 1/1/1 3/2/1 2/3/1
f 6/4/2 19/5/2 5/6/2
f 3/7/3 25/8/3 2/9/3
f 7/10/4 33/11/4 35/12/4
f 1/13/5 12/14/5 4/15/5
f 9/16/6 15/17/6 11/18/6
f 6/19/7 11/18/7 1/20/7
f 8/21/8 12/22/8 10/23/8
f 6/24/9 10/25/9 9/26/9
f 15/27/10 14/28/10 16/29/10
f 9/30/11 14/31/11 13/32/11
f 10/33/12 16/29/12 14/28/12
f 11/34/13 16/29/13 12/35/13
f 18/36/14 21/37/14 17/38/14
f 6/39/15 17/40/15 20/41/15
f 1/1/16 18/36/16 17/38/16
f 5/42/17 18/36/17 2/3/17
f 22/43/18 24/44/18 21/37/18
f 20/45/19 21/37/19 24/44/19
f 19/46/20 24/47/20 23/48/20
f 19/49/21 22/43/21 18/36/21
f 28/50/22 30/51/22 26/52/22
f 7/53/23 27/54/23 28/55/23
f 7/56/24 26/57/24 3/58/24
f 5/59/25 25/8/25 27/60/25
f 29/61/26 32/62/26 31/63/26
f 26/52/27 29/61/27 25/64/27
f 27/65/28 29/61/28 31/63/28
f 28/66/29 31/67/29 32/68/29
f 35/69/30 37/70/30 39/71/30
f 7/72/31 36/73/31 8/74/31
f 4/75/32 33/76/32 3/2/32
f 8/77/33 34/78/33 4/79/33
f 37/70/34 40/80/34 39/71/34
f 36/73/35 39/81/35 40/82/35
f 36/83/36 38/84/36 34/78/36
f 34/85/37 37/70/37 33/76/37
f 7/53/38 6/24/38 5/86/38
f 41/87/1 43/88/1 42/89/1
f 46/90/2 59/91/2 45/92/2
f 43/93/3 65/94/3 42/95/3
f 47/96/4 73/97/4 75/98/4
f 49/99/6 55/100/6 51/101/6
f 46/102/7 51/101/7 41/103/7
f 46/104/9 50/105/9 49/106/9
f 55/107/10 54/108/10 56/109/10
f 49/110/11 54/111/11 53/112/11
f 50/113/12 56/109/12 54/108/12
f 51/114/13 56/109/13 52/115/13
f 58/116/14 61/117/14 57/118/14
f 46/119/15 57/120/15 60/121/15
f 62/122/18 64/123/18 61/117/18
f 60/124/19 61/117/19 64/123/19
f 59/125/20 64/126/20 63/127/20
f 59/128/21 62/122/21 58/116/21
f 68/129/22 70/130/22 66/131/22
f 47/132/24 66/133/24 43/134/24
f 45/135/25 65/94/25 67/136/25
f 69/137/26 72/138/26 71/139/26
f 66/131/27 69/137/27 65/140/27
f 67/141/28 69/137/28 71/139/28
f 68/142/29 71/143/29 72/144/29
f 75/145/30 77/146/30 79/147/30
f 44/148/32 73/149/32 43/88/32
f 48/150/33 74/151/33 44/152/33
f 77/146/34 80/153/34 79/147/34
f 76/154/36 78/155/36 74/151/36
f 74/156/37 77/146/37 73/149/37
f 1/1/39 4/75/39 3/2/39
f 6/4/40 20/157/40 19/5/40
f 3/7/41 26/158/41 25/8/41
f 7/10/42 3/159/42 33/11/42
f 1/13/43 11/160/43 12/14/43
f 9/16/44 13/161/44 15/17/44
f 6/19/45 9/16/45 11/18/45
f 8/21/46 4/162/46 12/22/46
f 6/24/47 8/163/47 10/25/47
f 15/27/48 13/164/48 14/28/48
f 9/30/49 10/165/49 14/31/49
f 10/33/50 12/35/50 16/29/50
f 11/34/51 15/27/51 16/29/51
f 18/36/52 22/43/52 21/37/52
f 6/39/53 1/166/53 17/40/53
f 1/1/54 2/3/54 18/36/54
f 5/42/55 19/49/55 18/36/55
f 22/43/56 23/167/56 24/44/56
f 20/45/57 17/38/57 21/37/57
f 19/46/58 20/168/58 24/47/58
f 19/49/59 23/167/59 22/43/59
f 28/50/60 32/62/60 30/51/60
f 7/53/61 5/86/61 27/54/61
f 7/56/62 28/169/62 26/57/62
f 5/59/63 2/9/63 25/8/63
f 29/61/64 30/51/64 32/62/64
f 26/52/65 30/51/65 29/61/65
f 27/65/66 25/64/66 29/61/66
f 28/66/67 27/170/67 31/67/67
f 35/69/68 33/76/68 37/70/68
f 7/72/69 35/171/69 36/73/69
f 4/75/70 34/85/70 33/76/70
f 8/77/71 36/83/71 34/78/71
f 37/70/72 38/172/72 40/80/72
f 36/73/73 35/171/73 39/81/73
f 36/83/74 40/173/74 38/84/74
f 34/85/75 38/172/75 37/70/75
f 7/53/76 8/74/76 6/24/76
f 41/87/39 44/148/39 43/88/39
f 46/90/40 60/174/40 59/91/40
f 43/93/41 66/175/41 65/94/41
f 47/96/42 43/176/42 73/97/42
f 49/99/44 53/177/44 55/100/44
f 46/102/45 49/99/45 51/101/45
f 46/104/47 48/178/47 50/105/47
f 55/107/48 53/179/48 54/108/48
f 49/110/49 50/180/49 54/111/49
f 50/113/50 52/115/50 56/109/50
f 51/114/51 55/107/51 56/109/51
f 58/116/52 62/122/52 61/117/52
f 46/119/53 41/181/53 57/120/53
f 62/122/56 63/182/56 64/123/56
f 60/124/57 57/118/57 61/117/57
f 59/125/58 60/183/58 64/126/58
f 59/128/59 63/182/59 62/122/59
f 68/129/60 72/138/60 70/130/60
f 47/132/62 68/184/62 66/133/62
f 45/135/63 42/95/63 65/94/63
f 69/137/64 70/130/64 72/138/64
f 66/131/65 70/130/65 69/137/65
f 67/141/66 65/140/66 69/137/66
f 68/142/67 67/185/67 71/143/67
f 75/145/68 73/149/68 77/146/68
f 44/148/70 74/156/70 73/149/70
f 48/150/71 76/154/71 74/151/71
f 77/146/72 78/186/72 80/153/72
f 76/154/74 80/187/74 78/155/74
f 74/156/75 78/186/75 77/146/75
