# Blender 3.6.1 Release Candidate
# www.blender.org
mtllib carrotStage4.mtl
o Carrot
v -0.000003 -0.323775 -0.057349
v 0.051792 -0.323775 -0.019718
v 0.032008 -0.323775 0.041172
v -0.032015 -0.323775 0.041172
v -0.051799 -0.323775 -0.019718
v -0.000003 -0.192687 -0.102851
v -0.000003 -0.061600 -0.123444
v -0.000003 0.069488 -0.115423
v 0.107023 0.069488 -0.037663
v 0.114652 -0.061600 -0.040142
v 0.095067 -0.192687 -0.033778
v 0.066143 0.069488 0.088154
v 0.070858 -0.061600 0.094644
v 0.058753 -0.192687 0.077984
v -0.066150 0.069488 0.088154
v -0.070865 -0.061600 0.094644
v -0.058760 -0.192687 0.077984
v -0.107030 0.069488 -0.037663
v -0.114659 -0.061600 -0.040142
v -0.095074 -0.192687 -0.033778
v -0.000003 -0.380992 -0.029909
v 0.025695 -0.380992 -0.011238
v 0.015879 -0.380992 0.018973
v -0.015886 -0.380992 0.018973
v -0.025702 -0.380992 -0.011238
v 0.065341 0.201486 -0.016532
v 0.007988 0.204843 -0.068189
v 0.034038 0.196782 0.052954
v -0.040593 0.199204 0.048851
v -0.064731 0.203117 -0.029134
v 0.001364 0.200141 -0.045414
v 0.041225 0.201540 -0.014767
v 0.023566 0.199143 0.031287
v -0.024880 0.199996 0.030489
v -0.043354 0.199507 -0.018425
v 0.065341 0.201486 -0.016531
v 0.007988 0.204843 -0.068189
v 0.034038 0.196782 0.052954
v -0.040593 0.199204 0.048851
v -0.064731 0.203117 -0.029134
v 0.016263 0.250868 -0.132634
v -0.090454 0.257750 -0.085434
v 0.007925 0.244532 -0.098273
v -0.060239 0.248927 -0.068125
v 0.008883 0.319363 -0.266372
v -0.153353 0.322114 -0.166581
v 0.004223 0.315361 -0.208156
v -0.099403 0.317118 -0.144415
v -0.100120 0.384261 -0.372701
v -0.150745 0.384252 -0.335840
v -0.100100 0.384279 -0.353456
v -0.132436 0.384273 -0.329912
v 0.106602 0.256794 -0.028478
v 0.054118 0.286869 -0.106623
v 0.074148 0.260802 -0.029836
v 0.037155 0.276747 -0.080527
v 0.221992 0.286691 -0.035961
v 0.165306 0.355304 -0.158614
v 0.184836 0.309524 -0.036201
v 0.147317 0.360329 -0.141776
v 0.355260 0.296397 -0.089877
v 0.345178 0.319927 -0.125745
v 0.341058 0.311265 -0.085357
v 0.333124 0.325202 -0.109366
v 0.062262 0.228716 0.091128
v 0.106436 0.241479 0.006620
v 0.048364 0.233476 0.063375
v 0.075043 0.241338 0.007316
v 0.137332 0.248397 0.141100
v 0.197291 0.267735 0.032609
v 0.130684 0.259274 0.104609
v 0.167039 0.271309 0.032547
v 0.239750 0.247987 0.185209
v 0.264279 0.258683 0.149845
v 0.237142 0.257177 0.172427
v 0.252217 0.263994 0.148796
v -0.062491 0.235972 0.081999
v 0.052786 0.244726 0.108911
v -0.033416 0.241196 0.057009
v 0.041813 0.248212 0.071971
v -0.136029 0.285790 0.142925
v 0.017112 0.328434 0.239638
v -0.083453 0.305681 0.120138
v 0.017293 0.335879 0.179440
v -0.173440 0.338271 0.240873
v -0.120160 0.362473 0.295802
v -0.150590 0.350114 0.236171
v -0.115287 0.367052 0.270508
v -0.099470 0.253334 -0.030156
v -0.075959 0.252096 0.067669
v -0.073986 0.249834 -0.015172
v -0.055210 0.252762 0.046332
v -0.152125 0.292994 -0.028561
v -0.138573 0.301331 0.108644
v -0.120152 0.291098 -0.003182
v -0.106387 0.301658 0.083466
v -0.247438 0.339055 0.007900
v -0.246959 0.344258 0.057629
v -0.236696 0.339070 0.018071
v -0.234562 0.344323 0.049555
vn 0.5706 0.2404 -0.7853
vn 0.9225 0.2433 0.2997
vn -0.0000 0.2665 0.9638
vn -0.9156 0.2705 0.2975
vn -0.5719 0.2313 -0.7871
vn -0.8867 -0.3617 0.2881
vn -0.5659 -0.2704 -0.7789
vn -0.5831 -0.1261 -0.8026
vn -0.5871 0.0494 -0.8080
vn -0.9156 -0.2704 0.2975
vn -0.9435 -0.1261 0.3066
vn -0.9499 0.0494 0.3086
vn -0.0000 -0.2704 0.9628
vn -0.0000 -0.1261 0.9920
vn -0.0000 0.0494 0.9988
vn 0.9156 -0.2704 0.2975
vn 0.9435 -0.1261 0.3066
vn 0.9499 0.0494 0.3086
vn 0.5659 -0.2704 -0.7789
vn 0.5831 -0.1261 -0.8026
vn 0.5871 0.0494 -0.8080
vn -0.0000 -1.0000 -0.0000
vn 0.8867 -0.3617 0.2881
vn -0.5480 -0.3617 -0.7542
vn 0.5480 -0.3617 -0.7542
vn -0.0000 -0.3617 0.9323
vn 0.0175 0.9998 0.0080
vn -0.8519 0.2684 -0.4497
vn -0.8702 0.2137 0.4439
vn -0.0621 -0.6885 0.7226
vn -0.8096 -0.5562 0.1875
vn 0.3506 0.7209 0.5978
vn -0.2288 0.6685 0.7076
vn -0.2301 0.6437 0.7298
vn 0.9173 0.2415 0.3167
vn -0.3049 -0.7561 -0.5791
vn 0.4509 0.8873 0.0971
vn 0.2933 0.7827 0.5490
vn 0.8204 0.4927 0.2900
vn -0.2766 -0.8614 -0.4259
vn -0.0009 1.0000 -0.0009
vn -0.2335 -0.9179 -0.3209
vn -0.1115 0.9334 0.3410
vn 0.2013 0.9320 0.3016
vn -0.5733 0.3800 -0.7259
vn 0.5439 -0.5438 -0.6391
vn 0.0718 0.2081 0.9755
vn -0.5845 0.5475 0.5988
vn -0.1462 -0.8455 -0.5136
vn 0.1777 -0.8216 -0.5417
vn -0.0198 0.1735 0.9846
vn -0.3332 0.8022 0.4955
vn 0.6678 0.6944 0.2678
vn 0.2650 0.4403 0.8578
vn 0.1020 0.9101 0.4017
vn 0.2172 0.9644 -0.1507
vn -0.4387 0.8230 0.3608
vn 0.6039 -0.7718 0.1991
vn -0.6780 0.7002 -0.2235
vn -0.0213 0.5172 -0.8556
vn -0.0832 0.9889 0.1232
vn -0.3103 0.9506 0.0022
vn 0.0691 0.5707 -0.8182
vn 0.2598 -0.9656 -0.0100
vn 0.3272 0.8317 0.4486
vn 0.4094 0.8974 -0.1646
vn 0.0942 -0.9691 -0.2278
vn -0.1797 0.9333 0.3109
vn -0.6591 0.1986 -0.7253
vn -0.7413 0.2479 -0.6237
vn 0.0987 0.6131 -0.7838
vn 0.9569 -0.0382 -0.2879
vn 0.3213 0.9191 0.2283
vn 0.1245 0.7826 -0.6100
vn 0.9420 0.3328 0.0440
vn -0.1122 -0.8313 0.5443
vn -0.4825 0.8735 0.0652
vn -0.0626 -0.8895 0.4527
vn -0.4928 0.6784 -0.5449
vn -0.0487 0.9211 -0.3863
vn 0.6105 0.1255 0.7820
vn 0.4666 0.3369 -0.8178
vn 0.7978 0.5394 -0.2692
vn 0.6956 0.2220 0.6833
vn 0.2096 0.9207 0.3293
vn -0.5937 -0.7936 0.1327
vn 0.4429 0.6689 -0.5970
vn 0.6026 0.7751 -0.1902
vn -0.1071 0.9818 -0.1566
vn -0.4020 -0.9103 0.0991
vn 0.3093 0.8945 -0.3229
vn 0.3511 0.9211 -0.1680
vn 0.6453 0.3152 -0.6959
vn 0.8530 0.3275 0.4064
vn -0.0428 0.2974 0.9538
vn -0.9156 0.2709 0.2970
vn -0.4545 0.3173 -0.8323
vn -0.0579 0.9979 0.0297
vn -0.0164 0.9999 -0.0038
vn -0.9198 0.3392 -0.1975
vn -0.8610 0.2038 0.4661
vn -0.0995 -0.7389 0.6664
vn -0.7764 -0.5940 0.2105
vn 0.3247 0.7040 0.6316
vn -0.2098 0.6730 0.7093
vn -0.2544 0.6412 0.7240
vn 0.9423 0.2032 0.2661
vn -0.2994 -0.7495 -0.5905
vn 0.5125 0.8587 -0.0013
vn 0.3241 0.8001 0.5048
vn 0.9521 0.2904 0.0962
vn -0.2612 -0.8446 -0.4674
vn -0.2240 -0.9138 -0.3389
vn -0.0567 0.9355 0.3488
vn 0.2115 0.9331 0.2907
vn -0.6428 0.7558 -0.1247
vn 0.5489 -0.5874 -0.5947
vn -0.0135 0.2208 0.9752
vn -0.5458 0.4782 0.6881
vn -0.0915 -0.8865 -0.4536
vn 0.2726 -0.8223 -0.4995
vn 0.0435 0.0813 0.9957
vn -0.3243 0.8022 0.5013
vn 0.7369 0.6613 0.1403
vn 0.3696 0.0714 0.9264
vn 0.1360 0.8757 0.4634
vn 0.1985 0.9769 -0.0794
vn -0.4384 0.8364 0.3291
vn 0.6118 -0.7585 0.2243
vn -0.6782 0.6997 -0.2246
vn -0.0610 0.5234 -0.8499
vn -0.1133 0.9716 0.2079
vn -0.2959 0.9552 -0.0069
vn -0.0193 0.6780 -0.7349
vn 0.2816 -0.9594 -0.0153
vn 0.3663 0.7893 0.4928
vn 0.1173 0.9928 -0.0235
vn 0.0888 -0.9879 -0.1270
vn -0.2546 0.7598 0.5982
vn -0.4741 0.3086 -0.8246
vn -0.6565 0.2504 -0.7115
vn 0.0234 0.5445 -0.8384
vn 0.9011 0.0239 -0.4329
vn 0.3033 0.9456 0.1179
vn 0.0688 0.7246 -0.6857
vn 0.8476 0.4892 -0.2056
vn -0.0586 -0.8479 0.5269
vn -0.4522 0.8907 0.0461
vn -0.0366 -0.8917 0.4511
vn -0.4708 0.6901 -0.5496
vn -0.0631 0.9193 -0.3885
vn 0.6976 0.2100 0.6850
vn 0.5111 0.3375 -0.7905
vn 0.8035 0.5090 -0.3086
vn 0.7344 0.2305 0.6384
vn 0.2278 0.9253 0.3032
vn -0.5709 -0.8142 0.1059
vn 0.4864 0.6684 -0.5628
vn 0.6165 0.7548 -0.2241
vn 0.0976 0.9897 -0.1045
vn -0.4050 -0.9093 0.0953
vn 0.3074 0.8940 -0.3259
vn 0.3468 0.9210 -0.1772
vt 0.206979 0.028364
vt 0.247829 0.129611
vt 0.179679 0.115386
vt 0.249947 0.037255
vt 0.320612 0.111241
vt 0.057378 0.028364
vt 0.121076 0.111009
vt 0.033825 0.108719
vt 0.415197 0.028903
vt 0.479714 0.101591
vt 0.392489 0.099025
vt 0.544352 0.043773
vt 0.616093 0.115984
vt 0.536442 0.134104
vt 0.406096 0.352241
vt 0.436478 0.393643
vt 0.415534 0.393027
vt 0.547589 0.343042
vt 0.611079 0.265496
vt 0.586137 0.334273
vt 0.536442 0.212333
vt 0.540326 0.281592
vt 0.621771 0.192922
vt 0.391292 0.262404
vt 0.448308 0.353482
vt 0.479714 0.180491
vt 0.468773 0.264683
vt 0.386272 0.177742
vt 0.034073 0.281460
vt 0.091729 0.371629
vt 0.049504 0.370521
vt 0.028364 0.194109
vt 0.111576 0.283494
vt 0.121835 0.196561
vt 0.261503 0.363348
vt 0.320819 0.274598
vt 0.296727 0.354458
vt 0.251571 0.213262
vt 0.256166 0.290915
vt 0.329543 0.193583
vt 0.195629 0.278279
vt 0.228522 0.356464
vt 0.178563 0.198022
vt 0.287559 0.960030
vt 0.253757 0.960030
vt 0.259678 0.941250
vt 0.264059 0.393375
vt 0.293630 0.914796
vt 0.251525 0.914796
vt 0.247695 0.389960
vt 0.080148 0.410463
vt 0.059197 0.409914
vt 0.557703 0.646284
vt 0.584394 0.691555
vt 0.553501 0.697233
vt 0.841815 0.555237
vt 0.822482 0.508651
vt 0.833523 0.490243
vt 0.898544 0.573991
vt 0.911751 0.556428
vt 0.908009 0.586710
vt 0.917317 0.044492
vt 0.951348 0.104940
vt 0.923544 0.093375
vt 0.869309 0.942710
vt 0.900829 0.879094
vt 0.908724 0.944906
vt 0.599155 0.617815
vt 0.589708 0.658793
vt 0.617087 0.602338
vt 0.621299 0.554748
vt 0.653333 0.534337
vt 0.602320 0.649230
vt 0.859862 0.790043
vt 0.872455 0.762596
vt 0.865343 0.802332
vt 0.284815 0.683084
vt 0.218224 0.656497
vt 0.291655 0.633433
vt 0.536442 0.488569
vt 0.601368 0.411934
vt 0.546636 0.525514
vt 0.551248 0.606543
vt 0.863940 0.743870
vt 0.877047 0.681735
vt 0.178563 0.589301
vt 0.291655 0.535140
vt 0.635988 0.417806
vt 0.625088 0.423454
vt 0.188019 0.470749
vt 0.223654 0.450104
vt 0.829785 0.409688
vt 0.841815 0.399770
vt 0.725233 0.248068
vt 0.760339 0.198528
vt 0.769497 0.226835
vt 0.386272 0.649352
vt 0.421656 0.634517
vt 0.390328 0.664729
vt 0.393782 0.691145
vt 0.434302 0.656776
vt 0.777751 0.126567
vt 0.749542 0.028364
vt 0.777751 0.031710
vt 0.678500 0.128622
vt 0.413951 0.614370
vt 0.434302 0.556057
vt 0.106788 0.481083
vt 0.034584 0.541065
vt 0.066427 0.467192
vt 0.093743 0.652766
vt 0.114524 0.664960
vt 0.086781 0.664076
vt 0.413788 0.535944
vt 0.406767 0.456971
vt 0.114524 0.546958
vt 0.028364 0.556133
vt 0.609649 0.769496
vt 0.597702 0.807828
vt 0.596193 0.753961
vt 0.398840 0.747874
vt 0.453215 0.771105
vt 0.390065 0.768708
vt 0.267396 0.858068
vt 0.291061 0.818179
vt 0.299150 0.853129
vt 0.306818 0.845212
vt 0.300074 0.807673
vt 0.592402 0.889271
vt 0.543986 0.810432
vt 0.554935 0.755299
vt 0.298159 0.769259
vt 0.306818 0.761202
vt 0.386272 0.822028
vt 0.611051 0.887050
vt 0.590303 0.897582
vt 0.536442 0.828979
vt 0.419708 0.896906
vt 0.390709 0.893258
vt 0.618760 0.822177
vt 0.717908 0.538152
vt 0.742987 0.495195
vt 0.734192 0.557009
vt 0.710062 0.570480
vt 0.718231 0.583999
vt 0.736526 0.592873
vt 0.765754 0.560761
vt 0.857476 0.178972
vt 0.842191 0.148202
vt 0.860588 0.130503
vt 0.710062 0.742518
vt 0.768439 0.814376
vt 0.759554 0.829175
vt 0.751715 0.649602
vt 0.803134 0.726686
vt 0.736049 0.712282
vt 0.834479 0.056584
vt 0.860588 0.028364
vt 0.115495 0.825652
vt 0.028364 0.841612
vt 0.104394 0.766151
vt 0.796300 0.812770
vt 0.028364 0.743417
vt 0.065285 0.721688
vt 0.710062 0.476706
vt 0.729844 0.403997
vt 0.187901 0.814922
vt 0.180208 0.776536
vt 0.194796 0.761202
vt 0.722237 0.960162
vt 0.730447 0.928522
vt 0.732455 0.966440
vt 0.766719 0.968194
vt 0.772855 0.928363
vt 0.194796 0.857266
vt 0.178563 0.824841
vt 0.921792 0.316151
vt 0.871722 0.254614
vt 0.876144 0.245932
vt 0.946241 0.949091
vt 0.716833 0.921620
vt 0.731392 0.892768
vt 0.789208 0.885904
vt 0.852248 0.256623
vt 0.969323 0.399770
vt 0.898543 0.439196
vt 0.901594 0.409330
vt 0.834479 0.320487
vt 0.852931 0.339046
vt 0.907589 0.339046
vt 0.288758 0.028364
vt 0.106656 0.028364
vt 0.469115 0.028364
vt 0.590574 0.028364
vt 0.280569 0.941250
vt 0.270989 0.971636
vt 0.281535 0.388965
vt 0.536442 0.669581
vt 0.831105 0.566033
vt 0.898544 0.540610
vt 0.951348 0.028364
vt 0.859862 0.889623
vt 0.234725 0.704473
vt 0.598853 0.399770
vt 0.859862 0.649602
vt 0.696161 0.209800
vt 0.112219 0.653939
vt 0.394705 0.450372
vt 0.448423 0.747874
vt 0.251525 0.828722
vt 0.468738 0.826514
vt 0.618760 0.893178
vt 0.845483 0.189203
vt 0.792730 0.674716
vt 0.080125 0.892272
vt 0.803134 0.825179
vt 0.714321 0.399770
vt 0.187714 0.864747
vt 0.946241 0.859060
vt 0.710062 0.885904
vt 0.845095 0.250608
vt 0.969323 0.483881
s 0
f 27/1/1 9/2/1 8/3/1
f 26/4/2 12/5/2 9/2/2
f 28/6/3 15/7/3 12/8/3
f 29/9/4 18/10/4 15/11/4
f 30/12/5 8/13/5 18/14/5
f 4/15/6 25/16/6 24/17/6
f 5/18/7 6/19/7 1/20/7
f 19/21/8 6/19/8 20/22/8
f 19/21/9 8/13/9 7/23/9
f 17/24/10 5/25/10 4/15/10
f 17/24/11 19/26/11 20/27/11
f 15/11/12 19/26/12 16/28/12
f 14/29/13 4/30/13 3/31/13
f 13/32/14 17/33/14 14/29/14
f 13/32/15 15/7/15 16/34/15
f 2/35/16 14/36/16 3/37/16
f 10/38/17 14/36/17 11/39/17
f 9/2/18 13/40/18 10/38/18
f 6/41/19 2/35/19 1/42/19
f 6/41/20 10/38/20 11/39/20
f 8/3/21 10/38/21 7/43/21
f 22/44/22 24/45/22 25/46/22
f 3/37/23 22/47/23 2/35/23
f 1/48/24 25/46/24 5/49/24
f 2/35/25 21/50/25 1/42/25
f 3/31/26 24/51/26 23/52/26
f 31/53/27 34/54/27 33/55/27
f 37/56/28 56/57/28 54/58/28
f 38/59/29 67/60/29 33/61/29
f 38/62/30 77/63/30 39/64/30
f 40/65/31 90/66/31 89/67/31
f 31/53/32 44/68/32 35/69/32
f 42/70/33 48/71/33 46/72/33
f 40/73/34 44/68/34 42/70/34
f 37/74/35 43/75/35 31/76/35
f 37/77/36 42/78/36 41/79/36
f 45/80/37 51/81/37 47/82/37
f 43/83/38 48/71/38 44/68/38
f 41/84/39 47/85/39 43/75/39
f 41/79/40 46/86/40 45/87/40
f 51/81/41 50/88/41 52/89/41
f 45/87/42 50/90/42 49/91/42
f 46/72/43 52/89/43 50/88/43
f 47/82/44 52/89/44 48/71/44
f 54/58/45 60/92/45 58/93/45
f 37/94/46 53/95/46 36/96/46
f 36/97/47 55/98/47 32/99/47
f 31/100/48 55/98/48 56/101/48
f 57/102/49 62/103/49 61/104/49
f 53/95/50 58/105/50 57/102/50
f 53/106/51 59/107/51 55/98/51
f 55/108/52 60/109/52 56/110/52
f 64/111/53 61/112/53 62/113/53
f 57/114/54 63/115/54 59/107/54
f 59/116/55 64/111/55 60/109/55
f 58/117/56 64/111/56 62/113/56
f 65/118/57 71/119/57 67/120/57
f 38/121/58 66/122/58 65/123/58
f 33/124/59 68/125/59 32/126/59
f 36/127/60 68/125/60 66/128/60
f 71/119/61 76/129/61 72/130/61
f 68/131/62 71/119/62 72/130/62
f 66/128/63 72/132/63 70/133/63
f 66/122/64 69/134/64 65/123/64
f 75/135/65 74/136/65 76/129/65
f 70/137/66 76/129/66 74/136/66
f 69/134/67 74/138/67 73/139/67
f 69/140/68 75/135/68 71/119/68
f 77/141/69 83/142/69 79/143/69
f 39/144/70 79/143/70 34/145/70
f 33/146/71 79/143/71 80/147/71
f 38/148/72 80/149/72 78/150/72
f 82/151/73 88/152/73 86/153/73
f 80/154/74 83/155/74 84/156/74
f 78/150/75 84/157/75 82/158/75
f 77/159/76 82/160/76 81/161/76
f 87/162/77 86/153/77 88/152/77
f 81/161/78 86/163/78 85/164/78
f 81/165/79 87/166/79 83/142/79
f 83/155/80 88/152/80 84/156/80
f 90/167/81 96/168/81 94/169/81
f 40/170/82 91/171/82 35/172/82
f 34/173/83 91/171/83 92/174/83
f 39/175/84 92/176/84 90/167/84
f 94/177/85 100/178/85 98/179/85
f 90/66/86 93/180/86 89/67/86
f 89/181/87 95/182/87 91/171/87
f 92/174/88 95/182/88 96/183/88
f 99/184/89 98/179/89 100/178/89
f 93/185/90 98/186/90 97/187/90
f 93/188/91 99/184/91 95/189/91
f 95/189/92 100/178/92 96/190/92
f 27/1/93 26/4/93 9/2/93
f 26/4/94 28/191/94 12/5/94
f 28/6/95 29/192/95 15/7/95
f 29/9/96 30/193/96 18/10/96
f 30/12/97 27/194/97 8/13/97
f 4/15/6 5/25/6 25/16/6
f 5/18/7 20/22/7 6/19/7
f 19/21/8 7/23/8 6/19/8
f 19/21/9 18/14/9 8/13/9
f 17/24/10 20/27/10 5/25/10
f 17/24/11 16/28/11 19/26/11
f 15/11/12 18/10/12 19/26/12
f 14/29/13 17/33/13 4/30/13
f 13/32/14 16/34/14 17/33/14
f 13/32/15 12/8/15 15/7/15
f 2/35/16 11/39/16 14/36/16
f 10/38/17 13/40/17 14/36/17
f 9/2/18 12/5/18 13/40/18
f 6/41/19 11/39/19 2/35/19
f 6/41/20 7/43/20 10/38/20
f 8/3/21 9/2/21 10/38/21
f 25/46/22 21/195/22 22/44/22
f 22/44/22 23/196/22 24/45/22
f 3/37/23 23/197/23 22/47/23
f 1/48/24 21/195/24 25/46/24
f 2/35/25 22/47/25 21/50/25
f 3/31/26 4/30/26 24/51/26
f 33/55/98 32/198/98 31/53/98
f 31/53/99 35/69/99 34/54/99
f 37/56/100 31/199/100 56/57/100
f 38/59/101 65/200/101 67/60/101
f 38/62/102 78/201/102 77/63/102
f 40/65/103 39/202/103 90/66/103
f 31/53/104 43/83/104 44/68/104
f 42/70/105 44/68/105 48/71/105
f 40/73/106 35/69/106 44/68/106
f 37/74/107 41/84/107 43/75/107
f 37/77/108 40/203/108 42/78/108
f 45/80/109 49/204/109 51/81/109
f 43/83/110 47/82/110 48/71/110
f 41/84/111 45/205/111 47/85/111
f 41/79/112 42/78/112 46/86/112
f 51/81/41 49/204/41 50/88/41
f 45/87/113 46/86/113 50/90/113
f 46/72/114 48/71/114 52/89/114
f 47/82/115 51/81/115 52/89/115
f 54/58/116 56/57/116 60/92/116
f 37/94/117 54/206/117 53/95/117
f 36/97/118 53/106/118 55/98/118
f 31/100/119 32/99/119 55/98/119
f 57/102/120 58/105/120 62/103/120
f 53/95/121 54/206/121 58/105/121
f 53/106/122 57/114/122 59/107/122
f 55/108/123 59/116/123 60/109/123
f 64/111/124 63/207/124 61/112/124
f 57/114/125 61/208/125 63/115/125
f 59/116/126 63/207/126 64/111/126
f 58/117/127 60/109/127 64/111/127
f 65/118/128 69/140/128 71/119/128
f 38/121/129 36/209/129 66/122/129
f 33/124/130 67/210/130 68/125/130
f 36/127/131 32/126/131 68/125/131
f 71/119/132 75/135/132 76/129/132
f 68/131/133 67/120/133 71/119/133
f 66/128/134 68/125/134 72/132/134
f 66/122/135 70/211/135 69/134/135
f 75/135/136 73/212/136 74/136/136
f 70/137/137 72/130/137 76/129/137
f 69/134/138 70/211/138 74/138/138
f 69/140/139 73/212/139 75/135/139
f 77/141/140 81/165/140 83/142/140
f 39/144/141 77/141/141 79/143/141
f 33/146/142 34/145/142 79/143/142
f 38/148/143 33/213/143 80/149/143
f 82/151/144 84/156/144 88/152/144
f 80/154/145 79/214/145 83/155/145
f 78/150/146 80/149/146 84/157/146
f 77/159/147 78/215/147 82/160/147
f 87/162/148 85/216/148 86/153/148
f 81/161/149 82/160/149 86/163/149
f 81/165/150 85/217/150 87/166/150
f 83/155/151 87/162/151 88/152/151
f 90/167/152 92/176/152 96/168/152
f 40/170/153 89/181/153 91/171/153
f 34/173/154 35/172/154 91/171/154
f 39/175/155 34/218/155 92/176/155
f 94/177/156 96/190/156 100/178/156
f 90/66/157 94/219/157 93/180/157
f 89/181/158 93/220/158 95/182/158
f 92/174/159 91/171/159 95/182/159
f 99/184/160 97/221/160 98/179/160
f 93/185/161 94/222/161 98/186/161
f 93/188/162 97/221/162 99/184/162
f 95/189/163 99/184/163 100/178/163
