# Blender 3.6.1 Release Candidate
# www.blender.org
mtllib wheatStage0.mtl
o WheatStage0
v 0.031841 -0.010826 0.058655
v 0.008539 -0.017915 0.044092
v 0.024252 -0.016730 0.030608
v 0.012270 -0.015014 0.057881
v 0.017767 -0.019573 0.056486
v 0.016168 0.001052 0.061551
v 0.014037 -0.022474 0.042698
v 0.008579 -0.004851 0.033504
v 0.068261 0.053047 0.005159
v 0.054056 0.009887 0.004360
v 0.075294 0.058518 0.031150
v 0.067735 0.020527 0.054916
v 0.061400 0.069165 0.033829
v 0.032626 0.045918 0.060229
v 0.054367 0.063695 0.007839
v 0.018947 0.035277 0.009673
v 0.071123 0.068324 0.009814
v 0.074043 0.070595 0.020603
v 0.071140 0.073355 0.021678
v 0.068220 0.071083 0.010889
v 0.016495 -0.021648 0.038597
v 0.013165 -0.010657 0.059980
v 0.014993 -0.011897 0.026797
v 0.030982 -0.016008 0.044085
v 0.007914 -0.014741 0.040571
v 0.016170 -0.021810 0.049590
v 0.009673 -0.016395 0.051264
v 0.021747 -0.017563 0.058007
v 0.009434 0.000326 0.048069
v 0.010680 -0.020846 0.042142
v 0.015163 -0.017358 0.058714
v 0.025427 -0.003781 0.065361
v 0.047531 0.061148 0.047944
v 0.055277 0.068424 0.021334
v 0.036295 0.052408 0.006420
v 0.019203 0.045358 0.035948
v 0.059997 0.057346 0.001627
v 0.063605 0.032440 0.002077
v 0.033937 0.020587 -0.002462
v 0.074382 0.053785 0.017652
v 0.074839 0.041179 0.043600
v 0.067478 0.010446 0.028642
v 0.069666 0.064867 0.037363
v 0.052746 0.035218 0.067053
v 0.050316 0.002286 0.058942
v 0.038829 -0.006649 0.016485
v 0.010712 0.013881 0.020930
v 0.022201 0.022818 0.063388
v 0.069747 0.072723 0.016254
v 0.069616 0.069822 0.009248
v 0.072935 0.069603 0.014988
v 0.073066 0.072506 0.021994
v 0.068899 0.072730 0.025589
v 0.064500 0.069307 0.009335
v 0.074749 0.067716 0.023950
v 0.070350 0.064293 0.007696
v 0.022617 0.001941 0.010747
v 0.038413 0.014227 0.069127
v 0.012435 -0.019854 0.050717
v 0.011184 0.022198 0.042992
v 0.049845 -0.006030 0.036882
v 0.018414 -0.013382 0.062631
v 0.036793 0.060523 0.027998
v 0.047842 0.040785 -0.003537
v 0.074342 0.033065 0.022024
v 0.063292 0.052802 0.053558
v 0.065658 0.071966 0.017753
v 0.020688 -0.020925 0.047946
v 0.011203 -0.018991 0.035976
v 0.008925 -0.011453 0.050657
v 0.071781 0.071843 0.015359
v 0.072660 0.070889 0.027769
v 0.066631 0.066199 0.005492
v 0.073631 0.065120 0.015507
v -0.022048 -0.025697 -0.062416
v -0.003403 -0.007083 -0.072960
v -0.001176 -0.007205 -0.052341
v -0.013663 -0.016175 -0.077913
v -0.010438 -0.020932 -0.073451
v -0.029766 -0.012069 -0.074656
v -0.000178 -0.011841 -0.068497
v -0.008895 0.006423 -0.064581
v -0.056381 0.020503 0.007975
v -0.016852 0.006045 -0.009163
v -0.075723 0.003366 -0.001361
v -0.054473 -0.027288 -0.027324
v -0.082719 0.015441 -0.012263
v -0.070156 0.003310 -0.054219
v -0.063378 0.032578 -0.002926
v -0.032535 0.036643 -0.036059
v -0.072090 0.024177 0.009707
v -0.080119 0.017064 0.005832
v -0.082286 0.019556 0.003325
v -0.074257 0.026669 0.007199
v 0.000647 -0.010289 -0.063974
v -0.018553 -0.015649 -0.077822
v -0.001123 0.003076 -0.056572
v -0.010161 -0.019004 -0.055084
v -0.004110 -0.002851 -0.070850
v -0.004715 -0.016962 -0.070881
v -0.008563 -0.011340 -0.076167
v -0.013796 -0.023087 -0.070947
v -0.020776 -0.000267 -0.071914
v -0.000474 -0.008688 -0.070547
v -0.012805 -0.019615 -0.076501
v -0.029820 -0.022350 -0.070425
v -0.080016 0.010447 -0.032845
v -0.074357 0.026275 -0.009639
v -0.049116 0.037825 -0.017929
v -0.054286 0.025714 -0.050182
v -0.056255 0.029753 0.004275
v -0.036630 0.014037 0.003086
v -0.017641 0.027594 -0.019205
v -0.064740 0.009671 0.005350
v -0.067528 -0.013340 -0.011830
v -0.032722 -0.016358 -0.013200
v -0.082847 0.006191 -0.008563
v -0.069369 -0.018239 -0.044176
v -0.037346 -0.029501 -0.046142
v -0.005753 -0.001508 -0.030889
v -0.018571 0.022985 -0.052513
v -0.050167 -0.005009 -0.067765
v -0.078691 0.023362 0.005408
v -0.072699 0.026198 0.009093
v -0.076193 0.020630 0.008200
v -0.082185 0.017794 0.004515
v -0.083233 0.018103 -0.000883
v -0.071135 0.028820 0.004954
v -0.079587 0.013049 0.003935
v -0.067490 0.023766 0.009773
v -0.006238 0.015987 -0.038841
v -0.049681 -0.022504 -0.059813
v -0.006049 -0.014452 -0.074193
v -0.036772 0.013581 -0.064194
v -0.019148 -0.020098 -0.034461
v -0.018843 -0.021771 -0.075718
v -0.066909 0.028596 -0.029327
v -0.037078 0.031065 -0.004625
v -0.049737 -0.004111 -0.000432
v -0.079567 -0.006580 -0.025134
v -0.077878 0.024392 0.001187
v -0.005659 -0.018080 -0.066217
v 0.000991 -0.004196 -0.066142
v -0.012187 -0.007885 -0.075643
v -0.077975 0.022268 0.007409
v -0.083676 0.013603 0.000473
v -0.067097 0.028291 0.008473
v -0.072893 0.017504 0.007759
vn 0.4459 -0.5401 -0.7137
vn -0.4393 -0.4469 -0.7793
vn -0.2605 -0.1733 -0.9498
vn 0.2377 -0.8002 -0.5507
vn -0.5145 -0.5487 -0.6590
vn -0.9233 0.0206 -0.3835
vn -0.7774 0.3168 -0.5434
vn -0.5978 0.2503 0.7616
vn 0.2794 0.2016 0.9388
vn -0.4272 0.5691 0.7026
vn -0.0180 -0.2419 0.9701
vn 0.0772 -0.0961 0.9924
vn 0.5663 -0.5661 0.5990
vn 0.7960 -0.2884 0.5323
vn -0.9090 -0.4127 0.0585
vn -0.5565 -0.7697 0.3127
vn -0.8720 -0.3731 0.3168
vn -0.1704 -0.9832 -0.0653
vn -0.6383 -0.7643 -0.0923
vn 0.0090 -0.8828 0.4696
vn -0.3664 -0.6521 0.6637
vn -0.7464 -0.3302 0.5778
vn -0.8067 0.5828 0.0980
vn -0.9622 -0.0836 -0.2592
vn -0.9426 0.2663 0.2016
vn -0.6741 0.1039 0.7313
vn 0.8251 -0.5545 -0.1089
vn 0.4562 -0.6848 0.5683
vn 0.5939 -0.8045 0.0060
vn 0.1552 -0.8861 -0.4368
vn -0.1342 -0.4013 0.9061
vn 0.3332 -0.7783 0.5321
vn -0.7262 -0.0355 0.6866
vn -0.0977 0.9217 0.3754
vn -0.5511 0.8341 -0.0238
vn -0.2030 0.8298 0.5198
vn -0.3821 0.7357 -0.5592
vn -0.3959 0.9146 -0.0820
vn -0.5244 0.6017 -0.6025
vn 0.0735 0.3148 -0.9463
vn 0.6164 -0.1988 -0.7619
vn -0.0449 0.1402 -0.9891
vn 0.6991 -0.0180 -0.7148
vn 0.9527 -0.2143 -0.2153
vn 0.9680 0.1508 0.2008
vn 0.9657 -0.0359 -0.2572
vn 0.9346 0.0245 0.3549
vn 0.5448 0.5995 0.5863
vn 0.4609 0.4832 0.7444
vn -0.2842 0.8244 -0.4895
vn -0.0273 0.9687 0.2466
vn -0.3054 0.9456 -0.1121
vn 0.1450 0.9884 0.0447
vn 0.0295 0.9778 -0.2076
vn -0.0326 0.9061 -0.4218
vn 0.4740 -0.8789 0.0532
vn 0.0584 -0.9469 -0.3163
vn 0.3628 -0.9273 0.0924
vn -0.0636 -0.9735 0.2196
vn -0.5857 -0.6456 -0.4900
vn -0.9744 -0.1751 -0.1407
vn -0.9634 0.1238 0.2379
vn -0.9648 0.0117 0.2628
vn 0.7905 0.2890 -0.5400
vn 0.5837 0.7477 -0.3166
vn 0.9008 0.3015 -0.3124
vn 0.3761 0.6579 -0.6525
vn 0.6696 0.7391 0.0728
vn 0.9343 0.3398 -0.1081
vn 0.6140 0.6722 0.4136
vn 0.9788 0.1959 0.0607
vn 0.1814 0.4622 -0.8680
vn 0.7614 0.0928 -0.6416
vn 0.9604 0.0489 -0.2742
vn 0.7076 -0.1072 0.6985
vn 0.8676 0.4939 0.0584
vn 0.6855 0.6425 0.3424
vn 0.8889 -0.2270 0.3979
vn 0.9084 0.4086 -0.0883
vn 0.3903 0.7800 -0.4891
vn 0.1917 0.9532 -0.2339
vn -0.4560 0.0098 -0.8899
vn -0.7078 -0.6314 -0.3167
vn -0.7303 0.1187 -0.6728
vn -0.2868 -0.7170 -0.6353
vn -0.4410 -0.7075 -0.5522
vn 0.0359 -0.9994 -0.0025
vn -0.2139 -0.9418 0.2594
vn 0.5228 0.2670 -0.8096
vn 0.6091 -0.2844 -0.7403
vn 0.3505 0.1079 -0.9303
vn 0.8890 -0.3887 -0.2419
vn 0.8288 0.0153 -0.5593
vn 0.4931 -0.7680 -0.4087
vn 0.2897 -0.5473 -0.7852
vn 0.1535 -0.1024 -0.9828
vn -0.3476 0.7176 -0.6035
vn 0.4228 0.6699 -0.6103
vn -0.1060 0.5624 -0.8200
vn -0.3015 -0.0060 -0.9534
vn 0.3254 -0.7062 0.6288
vn 0.1754 -0.9805 -0.0881
vn 0.5282 -0.7778 0.3408
vn 0.9215 -0.2956 0.2518
vn -0.0950 -0.6960 -0.7117
vn 0.2998 -0.9375 -0.1767
vn -0.1511 -0.0231 -0.9883
vn -0.9333 0.3194 -0.1643
vn -0.5536 0.7799 -0.2921
vn -0.9059 0.2419 -0.3476
vn -0.2395 0.9595 0.1484
vn -0.6268 0.7694 -0.1233
vn -0.0734 0.9964 0.0428
vn 0.2013 0.7094 0.6754
vn 0.4092 0.0072 0.9124
vn 0.3953 0.7104 0.5822
vn 0.2161 0.0274 0.9760
vn 0.0674 -0.5319 0.8441
vn -0.4503 -0.6013 0.6601
vn -0.0626 -0.4179 0.9063
vn -0.4158 -0.7447 0.5220
vn -0.9208 -0.3540 0.1636
vn -0.8850 -0.4653 -0.0150
vn -0.3709 0.9077 0.1964
vn -0.9233 0.3833 -0.0245
vn -0.6581 0.7523 -0.0295
vn -0.8771 0.4188 0.2353
vn -0.7137 0.6352 0.2953
vn -0.5312 0.7646 0.3649
vn 0.5937 -0.7776 0.2072
vn 0.9333 -0.3466 0.0941
vn 0.6396 -0.7635 0.0892
vn 0.7119 -0.6207 -0.3286
vn 0.9197 0.2936 -0.2606
vn 0.4415 0.5550 -0.7050
vn -0.0012 0.4756 -0.8797
vn 0.0796 0.4010 -0.9126
vn -0.1486 0.0316 0.9884
vn -0.5952 0.2593 0.7606
vn -0.2999 -0.1655 0.9395
vn -0.3024 0.5378 0.7870
vn -0.8053 -0.0348 0.5919
vn -0.4429 -0.2902 0.8483
vn -0.9096 -0.2485 0.3329
vn -0.4192 -0.4970 0.7597
vn 0.0143 0.6780 0.7349
vn 0.0725 0.0058 0.9973
vn -0.1232 -0.3589 0.9252
vt 0.611999 0.409594
vt 0.524280 0.470577
vt 0.532691 0.399203
vt 0.588351 0.479661
vt 0.525501 0.541965
vt 0.396979 0.332349
vt 0.432728 0.258144
vt 0.461437 0.292141
vt 0.486365 0.189831
vt 0.520454 0.231052
vt 0.710733 0.105206
vt 0.634116 0.022464
vt 0.710733 0.025164
vt 0.663345 0.177727
vt 0.649072 0.102711
vt 0.594030 0.131118
vt 0.565381 0.056563
vt 0.524280 0.608106
vt 0.543750 0.626320
vt 0.532223 0.627467
vt 0.544848 0.602549
vt 0.532223 0.602765
vt 0.565078 0.638148
vt 0.556538 0.645551
vt 0.679023 0.257243
vt 0.687276 0.236386
vt 0.692543 0.250317
vt 0.405514 0.138910
vt 0.377848 0.311217
vt 0.364798 0.215616
vt 0.289966 0.265432
vt 0.299688 0.188835
vt 0.327953 0.107303
vt 0.231489 0.251512
vt 0.123259 0.225694
vt 0.206603 0.179006
vt 0.239370 0.310516
vt 0.161466 0.290455
vt 0.639148 0.530168
vt 0.562452 0.548721
vt 0.094397 0.312762
vt 0.043360 0.251944
vt 0.632671 0.195991
vt 0.671143 0.218528
vt 0.654327 0.230631
vt 0.698391 0.179870
vt 0.690928 0.220246
vt 0.675098 0.238526
vt 0.663621 0.243561
vt 0.556672 0.776177
vt 0.629645 0.779270
vt 0.588119 0.837077
vt 0.519414 0.066602
vt 0.446098 0.079294
vt 0.477763 0.041141
vt 0.512540 0.120861
vt 0.382430 0.053075
vt 0.331737 0.830540
vt 0.286733 0.898442
vt 0.298189 0.827116
vt 0.399588 0.872612
vt 0.349607 0.900405
vt 0.366659 0.977537
vt 0.286733 0.976428
vt 0.022464 0.098720
vt 0.088677 0.149571
vt 0.023094 0.171417
vt 0.106387 0.061220
vt 0.063435 0.084438
vt 0.157168 0.111513
vt 0.124759 0.042281
vt 0.524280 0.785919
vt 0.526623 0.852109
vt 0.616294 0.898319
vt 0.537874 0.916427
vt 0.186182 0.078670
vt 0.520454 0.037975
vt 0.580382 0.739864
vt 0.539116 0.741873
vt 0.551746 0.718960
vt 0.533966 0.727246
vt 0.539855 0.710942
vt 0.545134 0.695702
vt 0.555943 0.694346
vt 0.593984 0.582364
vt 0.548642 0.586483
vt 0.193032 0.335707
vt 0.241806 0.341621
vt 0.209753 0.358721
vt 0.568794 0.610102
vt 0.556534 0.620847
vt 0.360792 0.352182
vt 0.347550 0.338498
vt 0.527264 0.581362
vt 0.338877 0.354276
vt 0.333838 0.345575
vt 0.332916 0.283624
vt 0.286733 0.306817
vt 0.316335 0.319941
vt 0.311190 0.334601
vt 0.290633 0.323069
vt 0.030051 0.044110
vt 0.046861 0.029201
vt 0.046609 0.035665
vt 0.532722 0.707451
vt 0.539956 0.690478
vt 0.526761 0.727746
vt 0.064885 0.028542
vt 0.524280 0.748079
vt 0.089036 0.025068
vt 0.077536 0.035541
vt 0.068719 0.022464
vt 0.357219 0.815355
vt 0.321475 0.791986
vt 0.332307 0.784617
vt 0.305698 0.788073
vt 0.315877 0.773828
vt 0.322321 0.772604
vt 0.025054 0.058997
vt 0.050550 0.049361
vt 0.771446 0.630630
vt 0.816314 0.530810
vt 0.842574 0.598230
vt 0.758448 0.556423
vt 0.780021 0.469513
vt 0.438964 0.419279
vt 0.459925 0.491831
vt 0.400850 0.459986
vt 0.432546 0.560387
vt 0.359457 0.521859
vt 0.210009 0.511346
vt 0.119041 0.448654
vt 0.177711 0.436577
vt 0.196544 0.589714
vt 0.163019 0.520685
vt 0.110729 0.562727
vt 0.054062 0.499675
vt 0.832401 0.885363
vt 0.810149 0.899879
vt 0.807883 0.888710
vt 0.732894 0.427650
vt 0.719638 0.407782
vt 0.743195 0.420924
vt 0.694369 0.409578
vt 0.696891 0.399203
vt 0.783460 0.892238
vt 0.863524 0.757999
vt 0.773227 0.675557
vt 0.863524 0.678722
vt 0.849401 0.831641
vt 0.787567 0.755879
vt 0.749848 0.845621
vt 0.712817 0.779164
vt 0.684075 0.703923
vt 0.022464 0.563426
vt 0.166836 0.615764
vt 0.085044 0.615956
vt 0.685770 0.542118
vt 0.745757 0.483045
vt 0.684075 0.614310
vt 0.213870 0.627462
vt 0.197010 0.644013
vt 0.760166 0.893737
vt 0.732956 0.867592
vt 0.771228 0.880783
vt 0.780188 0.901388
vt 0.218933 0.646729
vt 0.207576 0.654687
vt 0.863357 0.164976
vt 0.786598 0.134387
vt 0.848118 0.095052
vt 0.344095 0.687198
vt 0.425220 0.672194
vt 0.365535 0.712532
vt 0.387741 0.630983
vt 0.479353 0.610818
vt 0.755661 0.069953
vt 0.831734 0.022464
vt 0.313519 0.668949
vt 0.068910 0.740787
vt 0.049290 0.824154
vt 0.022464 0.782946
vt 0.286733 0.594634
vt 0.330285 0.599909
vt 0.084844 0.762648
vt 0.123011 0.845491
vt 0.177594 0.771215
vt 0.130673 0.774527
vt 0.197462 0.837843
vt 0.112412 0.920490
vt 0.022464 0.893655
vt 0.196434 0.752569
vt 0.896172 0.164498
vt 0.909110 0.097239
vt 0.909110 0.026200
vt 0.073287 0.403649
vt 0.022464 0.444654
vt 0.826852 0.190291
vt 0.835975 0.240442
vt 0.807054 0.223471
vt 0.871189 0.203863
vt 0.850283 0.220452
vt 0.871652 0.219263
vt 0.859794 0.232030
vt 0.848279 0.243541
vt 0.699244 0.472324
vt 0.738307 0.443225
vt 0.151689 0.650303
vt 0.188086 0.667488
vt 0.707306 0.434661
vt 0.712256 0.418905
vt 0.473098 0.439221
vt 0.459627 0.399203
vt 0.479353 0.412245
vt 0.758858 0.436377
vt 0.840120 0.871106
vt 0.839008 0.893125
vt 0.798967 0.831377
vt 0.805036 0.871977
vt 0.117739 0.718722
vt 0.138931 0.712415
vt 0.136867 0.720053
vt 0.865120 0.237134
vt 0.850830 0.249422
vt 0.878443 0.220738
vt 0.156239 0.722276
vt 0.886900 0.202103
vt 0.176759 0.726614
vt 0.164336 0.734896
vt 0.161279 0.716684
vt 0.097261 0.719276
vt 0.106331 0.729542
vt 0.305867 0.706775
vt 0.320232 0.716949
vt 0.305308 0.724068
vt 0.115793 0.712485
vt 0.134723 0.735461
vt 0.430892 0.942432
vt 0.241806 0.138077
vt 0.494414 0.022464
vt 0.577121 0.636594
vt 0.027564 0.040857
vt 0.308221 0.773552
vt 0.222750 0.585262
vt 0.303299 0.514728
vt 0.202872 0.910321
vt 0.226211 0.801765
vt 0.684075 0.417786
vt 0.854777 0.880447
vt 0.312836 0.727677
s 1
usemtl Material.001
f 10/1/1 57/2/2 39/3/3
f 46/4/4 23/5/5 57/2/2
f 23/6/5 47/7/6 57/8/2
f 57/8/2 16/9/7 39/10/3
f 48/11/8 44/12/9 14/13/10
f 48/11/8 32/14/11 58/15/12
f 32/14/11 45/16/13 58/15/12
f 58/15/12 12/17/14 44/12/9
f 2/18/15 59/19/16 27/20/17
f 7/21/18 59/19/16 30/22/19
f 59/19/16 5/23/20 31/24/21
f 59/25/16 4/26/22 27/27/17
f 47/7/6 36/28/23 16/9/7
f 8/29/24 60/30/25 47/7/6
f 60/30/25 6/31/26 48/32/8
f 36/28/23 48/32/8 14/33/10
f 45/34/13 42/35/27 12/36/14
f 1/37/28 61/38/29 45/34/13
f 61/39/29 3/40/30 46/4/4
f 42/35/27 46/41/4 10/42/1
f 1/43/28 62/44/31 28/45/32
f 6/46/26 62/44/31 32/14/11
f 22/47/33 31/48/21 62/44/31
f 28/45/32 31/48/21 5/49/20
f 13/50/34 63/51/35 33/52/36
f 15/53/37 63/54/35 34/55/38
f 35/56/39 36/28/23 63/54/35
f 33/57/36 36/28/23 14/33/10
f 37/58/40 35/59/39 15/60/37
f 37/58/40 38/61/41 64/62/42
f 38/61/41 39/63/3 64/62/42
f 64/62/42 16/64/7 35/59/39
f 9/65/43 65/66/44 38/67/41
f 11/68/45 65/66/44 40/69/46
f 41/70/47 42/35/27 65/66/44
f 38/67/41 42/35/27 10/42/1
f 43/71/48 41/70/47 11/68/45
f 43/72/48 33/52/36 66/73/49
f 66/73/49 14/74/10 44/75/9
f 66/76/49 12/36/14 41/70/47
f 34/55/38 54/77/50 15/53/37
f 34/78/38 53/79/51 67/80/52
f 67/80/52 19/81/53 49/82/54
f 67/80/52 20/83/55 54/84/50
f 24/85/56 21/86/57 3/40/30
f 24/87/56 28/88/32 68/89/58
f 68/90/58 5/23/20 26/91/59
f 68/90/58 7/21/18 21/86/57
f 8/29/24 69/92/60 25/93/61
f 3/40/30 69/94/60 23/5/5
f 21/86/57 30/22/19 69/94/60
f 25/93/61 30/95/19 2/96/15
f 29/97/62 22/98/33 6/31/26
f 29/97/62 25/93/61 70/99/63
f 70/99/63 2/96/15 27/100/17
f 70/99/63 4/101/22 22/98/33
f 17/102/64 71/103/65 51/104/66
f 20/83/55 71/105/65 50/106/67
f 71/105/65 19/81/53 52/107/68
f 71/103/65 18/108/69 51/104/66
f 13/50/34 72/109/70 53/79/51
f 11/68/45 72/110/70 43/71/48
f 55/111/71 52/112/68 72/110/70
f 53/79/51 52/107/68 19/81/53
f 9/113/43 73/114/72 56/115/73
f 15/60/37 73/114/72 37/58/40
f 54/116/50 50/117/67 73/114/72
f 56/115/73 50/117/67 17/118/64
f 40/69/46 55/111/71 11/68/45
f 40/69/46 56/119/73 74/120/74
f 74/120/74 17/102/64 51/104/66
f 74/120/74 18/108/69 55/111/71
f 84/121/75 131/122/76 113/123/77
f 120/124/78 97/125/79 131/122/76
f 97/126/79 121/127/80 131/128/76
f 131/128/76 90/129/81 113/130/77
f 122/131/82 118/132/83 88/133/84
f 122/131/82 106/134/85 132/135/86
f 106/134/85 119/136/87 132/135/86
f 132/135/86 86/137/88 118/132/83
f 76/138/89 133/139/90 101/140/91
f 81/141/92 133/142/90 104/143/93
f 133/142/90 79/144/94 105/145/95
f 133/139/90 78/146/96 101/140/91
f 121/147/80 110/148/97 90/149/81
f 82/150/98 134/151/99 121/147/80
f 134/151/99 80/152/100 122/153/82
f 110/148/97 122/153/82 88/154/84
f 119/136/87 116/155/101 86/137/88
f 75/156/102 135/157/103 119/136/87
f 135/158/103 77/159/104 120/124/78
f 116/160/101 120/124/78 84/121/75
f 75/156/102 136/161/105 102/162/106
f 80/152/100 136/163/105 106/164/85
f 96/165/107 105/166/95 136/163/105
f 102/162/106 105/167/95 79/168/94
f 87/169/108 137/170/109 107/171/110
f 89/172/111 137/173/109 108/174/112
f 109/175/113 110/176/97 137/173/109
f 107/171/110 110/177/97 88/178/84
f 111/179/114 109/175/113 89/172/111
f 111/180/114 112/181/115 138/182/116
f 112/183/115 113/130/77 138/184/116
f 138/184/116 90/129/81 109/175/113
f 83/185/117 139/186/118 112/181/115
f 85/187/119 139/186/118 114/188/120
f 115/189/121 116/190/101 139/186/118
f 112/181/115 116/190/101 84/191/75
f 117/192/122 115/189/121 85/187/119
f 117/193/122 107/171/110 140/194/123
f 140/194/123 88/178/84 118/195/83
f 140/196/123 86/137/88 115/197/121
f 108/198/112 128/199/124 89/200/111
f 108/198/112 127/201/125 141/202/126
f 141/202/126 93/203/127 123/204/128
f 141/202/126 94/205/129 128/199/124
f 98/206/130 95/207/131 77/159/104
f 98/208/130 102/162/106 142/209/132
f 142/210/132 79/144/94 100/211/133
f 142/210/132 81/141/92 95/207/131
f 82/212/98 143/213/134 99/214/135
f 77/159/104 143/215/134 97/125/79
f 95/207/131 104/143/93 143/215/134
f 99/216/135 104/217/93 76/138/89
f 103/218/136 96/165/107 80/152/100
f 103/218/136 99/216/135 144/219/137
f 144/219/137 76/138/89 101/140/91
f 144/219/137 78/146/96 96/165/107
f 91/220/138 145/221/139 125/222/140
f 94/205/129 145/223/139 124/224/141
f 145/223/139 93/203/127 126/225/142
f 145/221/139 92/226/143 125/222/140
f 87/169/108 146/227/144 127/201/125
f 85/187/119 146/228/144 117/192/122
f 129/229/145 126/230/142 146/228/144
f 127/201/125 126/225/142 93/203/127
f 83/185/117 147/231/146 130/232/147
f 89/172/111 147/233/146 111/179/114
f 128/234/124 124/235/141 147/233/146
f 130/232/147 124/236/141 91/220/138
f 114/188/120 129/229/145 85/187/119
f 114/188/120 130/232/147 148/237/148
f 148/237/148 91/220/138 125/222/140
f 148/237/148 92/226/143 129/229/145
f 10/1/1 46/4/4 57/2/2
f 46/4/4 3/40/30 23/5/5
f 23/6/5 8/29/24 47/7/6
f 57/8/2 47/7/6 16/9/7
f 48/11/8 58/15/12 44/12/9
f 48/11/8 6/46/26 32/14/11
f 32/14/11 1/43/28 45/16/13
f 58/15/12 45/16/13 12/17/14
f 2/18/15 30/22/19 59/19/16
f 7/21/18 26/91/59 59/19/16
f 59/19/16 26/91/59 5/23/20
f 59/25/16 31/48/21 4/26/22
f 47/7/6 60/30/25 36/28/23
f 8/29/24 29/97/62 60/30/25
f 60/30/25 29/97/62 6/31/26
f 36/28/23 60/30/25 48/32/8
f 45/34/13 61/38/29 42/35/27
f 1/37/28 24/87/56 61/38/29
f 61/39/29 24/85/56 3/40/30
f 42/35/27 61/38/29 46/41/4
f 1/43/28 32/14/11 62/44/31
f 6/46/26 22/47/33 62/44/31
f 22/47/33 4/26/22 31/48/21
f 28/45/32 62/44/31 31/48/21
f 13/50/34 34/78/38 63/51/35
f 15/53/37 35/56/39 63/54/35
f 35/56/39 16/9/7 36/28/23
f 33/57/36 63/54/35 36/28/23
f 37/58/40 64/62/42 35/59/39
f 37/58/40 9/113/43 38/61/41
f 38/61/41 10/238/1 39/63/3
f 64/62/42 39/63/3 16/64/7
f 9/65/43 40/69/46 65/66/44
f 11/68/45 41/70/47 65/66/44
f 41/70/47 12/36/14 42/35/27
f 38/67/41 65/66/44 42/35/27
f 43/71/48 66/76/49 41/70/47
f 43/72/48 13/50/34 33/52/36
f 66/73/49 33/52/36 14/74/10
f 66/76/49 44/239/9 12/36/14
f 34/55/38 67/240/52 54/77/50
f 34/78/38 13/50/34 53/79/51
f 67/80/52 53/79/51 19/81/53
f 67/80/52 49/82/54 20/83/55
f 24/85/56 68/90/58 21/86/57
f 24/87/56 1/37/28 28/88/32
f 68/90/58 28/241/32 5/23/20
f 68/90/58 26/91/59 7/21/18
f 8/29/24 23/6/5 69/92/60
f 3/40/30 21/86/57 69/94/60
f 21/86/57 7/21/18 30/22/19
f 25/93/61 69/92/60 30/95/19
f 29/97/62 70/99/63 22/98/33
f 29/97/62 8/29/24 25/93/61
f 70/99/63 25/93/61 2/96/15
f 70/99/63 27/100/17 4/101/22
f 17/102/64 50/242/67 71/103/65
f 20/83/55 49/82/54 71/105/65
f 71/105/65 49/82/54 19/81/53
f 71/103/65 52/112/68 18/108/69
f 13/50/34 43/72/48 72/109/70
f 11/68/45 55/111/71 72/110/70
f 55/111/71 18/108/69 52/112/68
f 53/79/51 72/109/70 52/107/68
f 9/113/43 37/58/40 73/114/72
f 15/60/37 54/116/50 73/114/72
f 54/116/50 20/243/55 50/117/67
f 56/115/73 73/114/72 50/117/67
f 40/69/46 74/120/74 55/111/71
f 40/69/46 9/65/43 56/119/73
f 74/120/74 56/119/73 17/102/64
f 74/120/74 51/104/66 18/108/69
f 84/121/75 120/124/78 131/122/76
f 120/124/78 77/159/104 97/125/79
f 97/126/79 82/212/98 121/127/80
f 131/128/76 121/127/80 90/129/81
f 122/131/82 132/135/86 118/132/83
f 122/131/82 80/244/100 106/134/85
f 106/134/85 75/156/102 119/136/87
f 132/135/86 119/136/87 86/137/88
f 76/138/89 104/217/93 133/139/90
f 81/141/92 100/211/133 133/142/90
f 133/142/90 100/211/133 79/144/94
f 133/139/90 105/166/95 78/146/96
f 121/147/80 134/151/99 110/148/97
f 82/150/98 103/218/136 134/151/99
f 134/151/99 103/218/136 80/152/100
f 110/148/97 134/151/99 122/153/82
f 119/136/87 135/157/103 116/155/101
f 75/156/102 98/208/130 135/157/103
f 135/158/103 98/206/130 77/159/104
f 116/160/101 135/158/103 120/124/78
f 75/156/102 106/134/85 136/161/105
f 80/152/100 96/165/107 136/163/105
f 96/165/107 78/146/96 105/166/95
f 102/162/106 136/161/105 105/167/95
f 87/169/108 108/198/112 137/170/109
f 89/172/111 109/175/113 137/173/109
f 109/175/113 90/129/81 110/176/97
f 107/171/110 137/170/109 110/177/97
f 111/179/114 138/184/116 109/175/113
f 111/180/114 83/185/117 112/181/115
f 112/183/115 84/245/75 113/130/77
f 138/184/116 113/130/77 90/129/81
f 83/185/117 114/188/120 139/186/118
f 85/187/119 115/189/121 139/186/118
f 115/189/121 86/246/88 116/190/101
f 112/181/115 139/186/118 116/190/101
f 117/192/122 140/247/123 115/189/121
f 117/193/122 87/169/108 107/171/110
f 140/194/123 107/171/110 88/178/84
f 140/196/123 118/132/83 86/137/88
f 108/198/112 141/202/126 128/199/124
f 108/198/112 87/169/108 127/201/125
f 141/202/126 127/201/125 93/203/127
f 141/202/126 123/204/128 94/205/129
f 98/206/130 142/210/132 95/207/131
f 98/208/130 75/156/102 102/162/106
f 142/210/132 102/248/106 79/144/94
f 142/210/132 100/211/133 81/141/92
f 82/212/98 97/126/79 143/213/134
f 77/159/104 95/207/131 143/215/134
f 95/207/131 81/141/92 104/143/93
f 99/216/135 143/249/134 104/217/93
f 103/218/136 144/219/137 96/165/107
f 103/218/136 82/150/98 99/216/135
f 144/219/137 99/216/135 76/138/89
f 144/219/137 101/140/91 78/146/96
f 91/220/138 124/236/141 145/221/139
f 94/205/129 123/204/128 145/223/139
f 145/223/139 123/204/128 93/203/127
f 145/221/139 126/230/142 92/226/143
f 87/169/108 117/193/122 146/227/144
f 85/187/119 129/229/145 146/228/144
f 129/229/145 92/226/143 126/230/142
f 127/201/125 146/227/144 126/225/142
f 83/185/117 111/180/114 147/231/146
f 89/172/111 128/234/124 147/233/146
f 128/234/124 94/250/129 124/235/141
f 130/232/147 147/231/146 124/236/141
f 114/188/120 148/237/148 129/229/145
f 114/188/120 83/185/117 130/232/147
f 148/237/148 130/232/147 91/220/138
f 148/237/148 125/222/140 92/226/143
