# Blender v3.3.1 OBJ File: ''
# www.blender.org
o Plane
v 0.905000 0.150000 -0.095000
v 0.095000 0.150000 -0.905000
v 0.095000 0.150000 -0.095000
v 1.000000 0.000000 -1.000000
v 0.905000 0.150000 -0.905000
v 0.000000 -0.000000 0.000000
v 1.000000 -0.000000 0.000000
v 0.000000 0.000000 -1.000000
vt 1.000000 0.000000
vt 0.000000 1.000000
vt 0.000000 0.000000
vt 1.000000 1.000000
vt 1.000000 1.000000
vt 0.000000 0.000000
vt 1.000000 0.000000
vt 0.000000 1.000000
vn 0.0000 1.0000 0.0000
vn 0.0000 0.5351 -0.8448
vn 0.0000 0.5351 0.8448
vn 0.8448 0.5351 0.0000
vn -0.8448 0.5351 0.0000
s 1
f 1/1/1 2/2/1 3/3/1
f 4/4/2 2/2/2 5/5/2
f 6/6/3 1/1/3 3/3/3
f 7/7/4 5/5/4 1/1/4
f 8/8/5 3/3/5 2/2/5
f 1/1/1 5/5/1 2/2/1
f 4/4/2 8/8/2 2/2/2
f 6/6/3 7/7/3 1/1/3
f 7/7/4 4/4/4 5/5/4
f 8/8/5 6/6/5 3/3/5
